<svg width="139" height="27" viewBox="0 0 139 27" fill="none" xmlns="http://www.w3.org/2000/svg">
<path d="M45.0448 19.687C43.6961 19.687 42.5515 19.432 41.6108 18.922C40.6815 18.412 39.9731 17.698 39.4858 16.78C38.9985 15.862 38.7548 14.7853 38.7548 13.55C38.7548 12.598 38.8965 11.7423 39.1798 10.983C39.4745 10.2123 39.8938 9.56067 40.4378 9.028C40.9931 8.484 41.6618 8.06467 42.4438 7.77C43.2371 7.47533 44.1325 7.328 45.1298 7.328C45.7418 7.328 46.3538 7.396 46.9658 7.532C47.5778 7.668 48.1671 7.89467 48.7338 8.212C48.9718 8.348 49.1305 8.52367 49.2098 8.739C49.3005 8.943 49.3231 9.164 49.2778 9.402C49.2438 9.62867 49.1531 9.83267 49.0058 10.014C48.8698 10.184 48.6885 10.2973 48.4618 10.354C48.2465 10.3993 47.9971 10.354 47.7138 10.218C47.3398 10.014 46.9431 9.86667 46.5238 9.776C46.1045 9.674 45.6455 9.623 45.1468 9.623C44.3421 9.623 43.6678 9.776 43.1238 10.082C42.5798 10.3767 42.1718 10.8187 41.8998 11.408C41.6391 11.986 41.5088 12.7 41.5088 13.55C41.5088 14.8307 41.8148 15.7997 42.4268 16.457C43.0501 17.1143 43.9681 17.443 45.1808 17.443C45.5888 17.443 46.0081 17.4033 46.4388 17.324C46.8695 17.2447 47.2945 17.1313 47.7138 16.984L47.2208 18.055V14.791H45.6908C45.3508 14.791 45.0901 14.706 44.9088 14.536C44.7275 14.366 44.6368 14.1337 44.6368 13.839C44.6368 13.533 44.7275 13.3007 44.9088 13.142C45.0901 12.972 45.3508 12.887 45.6908 12.887H48.3598C48.6998 12.887 48.9548 12.9777 49.1248 13.159C49.3061 13.3403 49.3968 13.601 49.3968 13.941V17.885C49.3968 18.1797 49.3401 18.429 49.2268 18.633C49.1135 18.837 48.9208 18.9843 48.6488 19.075C48.1388 19.2563 47.5665 19.4037 46.9318 19.517C46.2971 19.6303 45.6681 19.687 45.0448 19.687ZM52.953 19.653C52.5676 19.653 52.273 19.5453 52.069 19.33C51.865 19.1147 51.763 18.8143 51.763 18.429V8.586C51.763 8.20067 51.8706 7.90033 52.086 7.685C52.3126 7.46967 52.6186 7.362 53.004 7.362C53.344 7.362 53.6103 7.43 53.803 7.566C54.007 7.69067 54.194 7.91167 54.364 8.229L58.291 15.403H57.713L61.64 8.229C61.81 7.91167 61.9913 7.69067 62.184 7.566C62.388 7.43 62.6543 7.362 62.983 7.362C63.3683 7.362 63.663 7.46967 63.867 7.685C64.0823 7.90033 64.19 8.20067 64.19 8.586V18.429C64.19 18.8143 64.088 19.1147 63.884 19.33C63.68 19.5453 63.3853 19.653 63 19.653C62.6146 19.653 62.3143 19.5453 62.099 19.33C61.895 19.1147 61.793 18.8143 61.793 18.429V11.544H62.167L59.005 17.205C58.869 17.4203 58.7216 17.5847 58.563 17.698C58.4156 17.8 58.2173 17.851 57.968 17.851C57.7186 17.851 57.5146 17.7943 57.356 17.681C57.1973 17.5677 57.0556 17.409 56.931 17.205L53.735 11.527H54.143V18.429C54.143 18.8143 54.041 19.1147 53.837 19.33C53.6443 19.5453 53.3496 19.653 52.953 19.653ZM67.3686 19.653C67.0286 19.653 66.7452 19.5623 66.5186 19.381C66.3032 19.1883 66.1786 18.956 66.1446 18.684C66.1106 18.4007 66.2012 18.1117 66.4166 17.817L70.1736 12.836V14.009L66.5696 9.215C66.3542 8.909 66.2579 8.62 66.2806 8.348C66.3146 8.06467 66.4392 7.83233 66.6546 7.651C66.8812 7.45833 67.1589 7.362 67.4876 7.362C67.7709 7.362 68.0146 7.43 68.2186 7.566C68.4339 7.702 68.6492 7.91733 68.8646 8.212L71.6696 12.088H70.8196L73.6076 8.212C73.8229 7.906 74.0382 7.69067 74.2536 7.566C74.4689 7.43 74.7182 7.362 75.0016 7.362C75.3416 7.362 75.6192 7.45267 75.8346 7.634C76.0612 7.81533 76.1859 8.04767 76.2086 8.331C76.2426 8.603 76.1462 8.89767 75.9196 9.215L72.2986 14.009V12.836L76.0386 17.817C76.2652 18.1117 76.3616 18.4007 76.3276 18.684C76.3049 18.956 76.1802 19.1883 75.9536 19.381C75.7382 19.5623 75.4549 19.653 75.1036 19.653C74.8316 19.653 74.5879 19.585 74.3726 19.449C74.1686 19.313 73.9532 19.092 73.7266 18.786L70.8026 14.757H71.6696L68.7456 18.786C68.5302 19.092 68.3149 19.313 68.0996 19.449C67.8842 19.585 67.6406 19.653 67.3686 19.653ZM84.2303 19.653C83.845 19.653 83.5503 19.5453 83.3463 19.33C83.1423 19.1147 83.0403 18.8143 83.0403 18.429V8.586C83.0403 8.20067 83.148 7.90033 83.3633 7.685C83.59 7.46967 83.896 7.362 84.2813 7.362C84.6213 7.362 84.8876 7.43 85.0803 7.566C85.2843 7.69067 85.4713 7.91167 85.6413 8.229L89.5683 15.403H88.9903L92.9173 8.229C93.0873 7.91167 93.2687 7.69067 93.4613 7.566C93.6653 7.43 93.9317 7.362 94.2603 7.362C94.6457 7.362 94.9403 7.46967 95.1443 7.685C95.3597 7.90033 95.4673 8.20067 95.4673 8.586V18.429C95.4673 18.8143 95.3653 19.1147 95.1613 19.33C94.9573 19.5453 94.6626 19.653 94.2773 19.653C93.892 19.653 93.5917 19.5453 93.3763 19.33C93.1723 19.1147 93.0703 18.8143 93.0703 18.429V11.544H93.4443L90.2823 17.205C90.1463 17.4203 89.999 17.5847 89.8403 17.698C89.693 17.8 89.4946 17.851 89.2453 17.851C88.996 17.851 88.792 17.7943 88.6333 17.681C88.4746 17.5677 88.333 17.409 88.2083 17.205L85.0123 11.527H85.4203V18.429C85.4203 18.8143 85.3183 19.1147 85.1143 19.33C84.9216 19.5453 84.627 19.653 84.2303 19.653ZM100.499 19.687C99.8869 19.687 99.3373 19.568 98.8499 19.33C98.3626 19.092 97.9829 18.769 97.7109 18.361C97.4389 17.953 97.3029 17.494 97.3029 16.984C97.3029 16.372 97.4616 15.8903 97.7789 15.539C98.0963 15.1763 98.6119 14.9213 99.3259 14.774C100.04 14.6153 100.986 14.536 102.165 14.536H103.066V15.862H102.182C101.604 15.862 101.134 15.896 100.771 15.964C100.42 16.0207 100.165 16.1227 100.006 16.27C99.8586 16.4173 99.7849 16.6213 99.7849 16.882C99.7849 17.1993 99.8926 17.46 100.108 17.664C100.335 17.868 100.658 17.97 101.077 17.97C101.406 17.97 101.695 17.8963 101.944 17.749C102.205 17.5903 102.409 17.3807 102.556 17.12C102.703 16.848 102.777 16.542 102.777 16.202V14.247C102.777 13.7483 102.664 13.397 102.437 13.193C102.21 12.9777 101.825 12.87 101.281 12.87C100.975 12.87 100.641 12.9097 100.278 12.989C99.9266 13.057 99.5356 13.176 99.1049 13.346C98.8556 13.4593 98.6346 13.4877 98.4419 13.431C98.2493 13.363 98.1019 13.2497 97.9999 13.091C97.8979 12.921 97.8469 12.7397 97.8469 12.547C97.8469 12.343 97.9036 12.1503 98.0169 11.969C98.1303 11.7763 98.3173 11.6347 98.5779 11.544C99.1106 11.3287 99.6093 11.1813 100.074 11.102C100.55 11.0227 100.986 10.983 101.383 10.983C102.256 10.983 102.97 11.1133 103.525 11.374C104.092 11.6233 104.517 12.0143 104.8 12.547C105.083 13.0683 105.225 13.7427 105.225 14.57V18.344C105.225 18.7633 105.123 19.0863 104.919 19.313C104.715 19.5397 104.42 19.653 104.035 19.653C103.65 19.653 103.349 19.5397 103.134 19.313C102.93 19.0863 102.828 18.7633 102.828 18.344V17.715L102.947 17.817C102.879 18.2023 102.732 18.5367 102.505 18.82C102.29 19.092 102.012 19.3073 101.672 19.466C101.332 19.6133 100.941 19.687 100.499 19.687ZM108.466 19.653C108.035 19.653 107.706 19.5397 107.48 19.313C107.253 19.0863 107.14 18.7633 107.14 18.344V12.309C107.14 11.8897 107.247 11.5723 107.463 11.357C107.689 11.1303 108.001 11.017 108.398 11.017C108.806 11.017 109.117 11.1303 109.333 11.357C109.548 11.5723 109.656 11.8897 109.656 12.309V13.193H109.486C109.622 12.513 109.922 11.986 110.387 11.612C110.851 11.238 111.452 11.0283 112.189 10.983C112.472 10.9603 112.687 11.034 112.835 11.204C112.993 11.3627 113.078 11.629 113.09 12.003C113.112 12.3543 113.039 12.632 112.869 12.836C112.71 13.04 112.438 13.1647 112.053 13.21L111.662 13.244C111.016 13.3007 110.534 13.4877 110.217 13.805C109.911 14.1223 109.758 14.5813 109.758 15.182V18.344C109.758 18.7633 109.644 19.0863 109.418 19.313C109.202 19.5397 108.885 19.653 108.466 19.653ZM115.438 19.653C115.018 19.653 114.695 19.5397 114.469 19.313C114.253 19.0863 114.146 18.7633 114.146 18.344V8.671C114.146 8.24033 114.253 7.91733 114.469 7.702C114.695 7.47533 115.018 7.362 115.438 7.362C115.846 7.362 116.157 7.47533 116.373 7.702C116.599 7.91733 116.713 8.24033 116.713 8.671V14.604H116.747L119.212 11.867C119.461 11.5837 119.688 11.374 119.892 11.238C120.107 11.0907 120.39 11.017 120.742 11.017C121.093 11.017 121.359 11.1077 121.541 11.289C121.733 11.4703 121.83 11.6913 121.83 11.952C121.841 12.2013 121.733 12.4563 121.507 12.717L118.906 15.624V14.655L121.796 17.987C122.011 18.2477 122.102 18.5083 122.068 18.769C122.045 19.0297 121.932 19.245 121.728 19.415C121.524 19.5737 121.263 19.653 120.946 19.653C120.56 19.653 120.249 19.5793 120.011 19.432C119.784 19.2847 119.552 19.058 119.314 18.752L116.747 15.896H116.713V18.344C116.713 19.2167 116.288 19.653 115.438 19.653ZM127.827 19.687C126.841 19.687 125.991 19.5113 125.277 19.16C124.575 18.7973 124.031 18.293 123.645 17.647C123.271 16.9897 123.084 16.219 123.084 15.335C123.084 14.4737 123.266 13.72 123.628 13.074C123.991 12.4167 124.495 11.9067 125.141 11.544C125.799 11.17 126.541 10.983 127.368 10.983C127.969 10.983 128.513 11.085 129 11.289C129.488 11.4817 129.907 11.765 130.258 12.139C130.61 12.5017 130.876 12.9493 131.057 13.482C131.239 14.0033 131.329 14.587 131.329 15.233C131.329 15.4483 131.261 15.6127 131.125 15.726C130.989 15.828 130.791 15.879 130.53 15.879H125.192V14.553H129.476L129.204 14.791C129.204 14.3263 129.136 13.941 129 13.635C128.864 13.3177 128.666 13.0797 128.405 12.921C128.156 12.7623 127.844 12.683 127.47 12.683C127.051 12.683 126.694 12.7793 126.399 12.972C126.105 13.1647 125.878 13.4423 125.719 13.805C125.561 14.1677 125.481 14.604 125.481 15.114V15.25C125.481 16.1113 125.68 16.746 126.076 17.154C126.484 17.562 127.085 17.766 127.878 17.766C128.15 17.766 128.462 17.732 128.813 17.664C129.165 17.596 129.493 17.4883 129.799 17.341C130.06 17.2163 130.292 17.1767 130.496 17.222C130.7 17.256 130.859 17.3467 130.972 17.494C131.086 17.6413 131.148 17.8113 131.159 18.004C131.182 18.1967 131.142 18.3893 131.04 18.582C130.938 18.7633 130.768 18.9163 130.53 19.041C130.145 19.2563 129.709 19.415 129.221 19.517C128.745 19.6303 128.281 19.687 127.827 19.687ZM136.87 19.687C136.088 19.687 135.43 19.5567 134.898 19.296C134.376 19.0353 133.985 18.6557 133.725 18.157C133.475 17.6583 133.351 17.0293 133.351 16.27V13.074H132.637C132.319 13.074 132.07 12.989 131.889 12.819C131.719 12.649 131.634 12.4167 131.634 12.122C131.634 11.8047 131.719 11.5667 131.889 11.408C132.07 11.238 132.319 11.153 132.637 11.153H133.351V9.861C133.351 9.43033 133.464 9.10733 133.691 8.892C133.917 8.66533 134.235 8.552 134.643 8.552C135.062 8.552 135.379 8.66533 135.595 8.892C135.81 9.10733 135.918 9.43033 135.918 9.861V11.153H137.533C137.85 11.153 138.094 11.238 138.264 11.408C138.434 11.5667 138.519 11.8047 138.519 12.122C138.519 12.4167 138.434 12.649 138.264 12.819C138.094 12.989 137.85 13.074 137.533 13.074H135.918V16.168C135.918 16.644 136.025 17.001 136.241 17.239C136.467 17.477 136.824 17.596 137.312 17.596C137.482 17.596 137.64 17.579 137.788 17.545C137.935 17.511 138.071 17.4883 138.196 17.477C138.354 17.4657 138.485 17.5167 138.587 17.63C138.689 17.732 138.74 17.9643 138.74 18.327C138.74 18.599 138.694 18.837 138.604 19.041C138.513 19.245 138.354 19.3923 138.128 19.483C137.98 19.5397 137.776 19.585 137.516 19.619C137.266 19.6643 137.051 19.687 136.87 19.687Z" fill="#E0E0E0"/>
<path d="M12.3809 23.25V14.3125M16.25 23.25V14.3125M8.51188 23.25V14.3125M3.09521 10.25L12.3809 3.75L21.6666 10.25M20.119 23.25V11.693C17.5592 11.2722 14.972 11.0614 12.3809 11.0625C9.74895 11.0625 7.16442 11.2792 4.64283 11.693V23.25M3.09521 23.25H21.6666M12.3809 7.8125H12.3892V7.82117H12.3809V7.8125Z" stroke="url(#paint0_linear_1_18)" stroke-width="2" stroke-linecap="round" stroke-linejoin="round"/>
<defs>
<linearGradient id="paint0_linear_1_18" x1="1.68829" y1="4.04545" x2="18.7751" y2="19.7574" gradientUnits="userSpaceOnUse">
<stop stop-color="#FF1818"/>
<stop offset="1" stop-color="#245CC7"/>
</linearGradient>
</defs>
</svg>
